<svg width="542" height="551" viewBox="0 0 542 551" fill="none" xmlns="http://www.w3.org/2000/svg">
<path d="M188.28 53.881L232.913 0.000976562H390.258H395.34L350.67 53.881H188.28Z" fill="#0E7EC3"/>
<path d="M188.642 333.872H188.279V162.165L143.655 216.038V387.745H143.978L188.642 333.872Z" fill="#35B9EB"/>
<path d="M287.823 108.819V108.996V279.718H242.42V163.578V163.57L287.823 108.819Z" fill="#35B9EB"/>
<path d="M143.651 161.719V107.739L188.283 53.881V107.893L143.651 161.719Z" fill="#35B9EB"/>
<path d="M188.28 162.163L188.511 161.886H143.648V161.732V161.717L188.28 107.89V108.021H188.326H287.825V108.821L242.423 163.572V162.163H188.28Z" fill="#0E7EC3"/>
<path d="M350.71 333.872H188.775H188.644L143.974 387.745H143.989H148.733H153.807H158.882H163.964H169.047H174.114H179.188H184.271H189.337H194.42H199.502H204.569H209.644H214.726H219.793H224.876H229.943H235.017H240.084H245.182H250.249H255.316H260.391H265.473H270.54H275.622H280.705H285.772H290.854H295.936H300.996H306.078L350.71 333.872Z" fill="#0E7EC3"/>
<path d="M395.341 0V0.177V280.015L350.709 333.873V53.881H350.678H350.67L395.341 0Z" fill="#35B9EB"/>
<path d="M106.076 548.757H175.26V526.998H130.818V512.995H162.825V491.631H130.818V480.222H175.26V458.457H106.076V548.757Z" fill="black"/>
<path d="M315.12 510.021C318.619 498.485 322.112 487.478 324.699 480.225H327.943C329.881 487.606 333.125 498.625 336.752 510.021H315.12ZM308.9 458.459C299.308 482.162 284.151 525.05 277.421 548.759H304.234C305.401 544.355 306.95 538.262 308.9 531.397H343.878C346.217 538.262 348.537 544.489 350.353 548.759H377.69C368.359 525.572 354.63 485.929 346.6 458.459H308.9Z" fill="black"/>
<path d="M542 458.461H457.78V480.176H542V458.461Z" fill="black"/>
<path d="M512.331 491.559H487.455V548.755H512.331V491.559Z" fill="black"/>
<path d="M420.656 456.776C429.535 456.816 438.382 457.853 447.03 459.868L442.658 481.48C437.374 480.035 431.921 479.3 426.443 479.294C409.98 479.294 403.932 481.091 403.932 503.22C403.932 525.349 409.98 527.662 426.443 527.662C431.921 527.654 437.374 526.917 442.658 525.47L447.03 547.599C438.359 549.448 429.521 550.397 420.656 550.429C391.58 550.429 377.692 539.498 377.692 502.959C377.692 466.298 391.58 456.776 420.656 456.776" fill="black"/>
<path d="M84.2264 526.778V503.024C84.2264 467.785 70.1089 458.461 40.9564 458.461H8.2219V480.226H37.7186C54.2962 480.226 57.553 481.781 57.553 503.413V526.778H32.9767V491.558H8.2219V526.778H0V548.755H92.2953V526.778H84.2264Z" fill="black"/>
<path d="M248.105 503.922C254.504 498.109 264.593 486.42 272.465 459.09H243.261C233.484 490.741 225.249 498.587 213.031 500.13V459.09H188.461V548.759H213.031V507.72C225.249 509.262 233.483 517.108 243.261 548.759H272.464C264.593 521.429 254.504 509.734 248.104 503.921" fill="black"/>
</svg>
